<svg xmlns="http://www.w3.org/2000/svg" width="20" height="11" viewBox="0 0 20 11">
  <g fill="none" fill-rule="evenodd" transform="translate(-2 -5)">
    <rect width="24" height="24"/>
    <path fill="#FFF" d="M7.43044895,5 C4.43128128,5 2,7.46247221 2,10.5 C2,13.5375278 4.43133266,16 7.43044895,16 C9.75085545,16 11.7310336,14.5258054 12.5085956,12.4518378 L16.0927073,12.4518378 L16.0927073,14.4438999 L18.2119157,14.4438999 L18.2119157,12.4518378 L19.8807916,12.4518378 L19.8807916,14.4438999 L22,14.4438999 L22,8.54816216 L12.5085956,8.54816216 C11.7310336,6.47419462 9.75085545,5 7.43044895,5 Z M5.25826937,12.2841762 C4.28536638,12.2841762 3.49665526,11.4853635 3.49665526,10.5 C3.49665526,9.51463645 4.28536638,8.71582383 5.25826937,8.71582383 C6.23117235,8.71582383 7.01988347,9.51463645 7.01988347,10.5 C7.01988347,11.4853635 6.23117235,12.2841762 5.25826937,12.2841762 Z"/>
  </g>
</svg>
